<svg xmlns="http://www.w3.org/2000/svg" xmlns:xlink="http://www.w3.org/1999/xlink" width="480" zoomAndPan="magnify" viewBox="0 0 360 239.999995" height="320" preserveAspectRatio="xMidYMid meet" version="1.2"><defs><clipPath id="db103a960f"><path d="M 0 3 L 237 3 L 237 238.011719 L 0 238.011719 Z M 0 3 "/></clipPath><clipPath id="8b4f0d0897"><path d="M 164.179688 1.761719 L 359.703125 1.761719 L 359.703125 75.929688 L 164.179688 75.929688 Z M 164.179688 1.761719 "/></clipPath><clipPath id="eabf21c22b"><path d="M 83.433594 97.476562 L 286.886719 97.476562 L 286.886719 238.011719 L 83.433594 238.011719 Z M 83.433594 97.476562 "/></clipPath></defs><g id="3f22ceb913"><g clip-rule="nonzero" clip-path="url(#db103a960f)"><path style=" stroke:none;fill-rule:nonzero;fill:#38bdf8;fill-opacity:1;" d="M 119.75 238.234375 C 96.976562 238.234375 76.699219 232.773438 58.925781 221.753906 C 41.152344 210.832031 27.265625 196.851562 17.175781 179.820312 C 7.085938 162.785156 1.714844 143.898438 0.976562 123.164062 C 0.234375 102.425781 5.511719 82.058594 16.804688 62.15625 C 26.339844 45.679688 38.746094 32.625 54.019531 22.8125 C 69.296875 13 85.589844 6.890625 102.898438 4.390625 C 120.210938 1.984375 137.613281 3.371094 155.019531 8.742188 C 172.421875 14.109375 188.160156 23.644531 201.953125 37.53125 C 217.507812 53.363281 227.875 71.691406 233.058594 92.429688 C 238.242188 113.164062 237.78125 133.996094 231.761719 154.730469 C 229.171875 163.0625 224.914062 170.007812 218.988281 175.46875 C 213.0625 180.929688 206.398438 185.003906 198.898438 187.59375 C 191.402344 190.1875 183.625 191.390625 175.570312 191.019531 C 167.515625 190.742188 160.019531 189.078125 153.074219 186.023438 C 146.132812 182.964844 140.300781 178.707031 135.578125 173.0625 C 130.855469 167.414062 127.988281 160.5625 127.152344 152.507812 C 131.503906 155.65625 136.6875 157.324219 142.707031 157.507812 C 148.722656 157.695312 154.554688 156.398438 160.203125 153.621094 C 165.851562 150.84375 170.570312 146.675781 174.460938 141.03125 C 178.347656 135.382812 180.292969 128.441406 180.292969 120.015625 C 180.292969 105.574219 177.238281 93.632812 171.21875 84.097656 C 165.203125 74.5625 157.609375 67.433594 148.539062 62.710938 C 139.464844 57.992188 129.652344 55.585938 119.101562 55.585938 C 108.546875 55.585938 98.734375 57.992188 89.660156 62.898438 C 80.589844 67.804688 73 75.117188 66.980469 84.746094 C 60.964844 94.371094 57.910156 106.40625 57.910156 120.847656 C 57.910156 132.144531 59.945312 142.046875 63.925781 150.65625 C 68 159.269531 73.367188 166.488281 80.125 172.042969 C 86.882812 177.691406 94.753906 181.578125 103.734375 183.707031 C 112.710938 185.835938 122.15625 185.929688 132.246094 183.890625 C 136.597656 189.078125 141.875 193.148438 148.074219 196.203125 C 154.277344 199.539062 160.945312 201.574219 168.164062 202.5 C 175.386719 203.519531 182.605469 203.332031 189.828125 202.035156 C 197.046875 200.742188 203.804688 198.242188 210.195312 194.445312 C 198.621094 208.332031 185.289062 219.070312 169.921875 226.660156 C 154.648438 234.4375 137.894531 238.234375 119.75 238.234375 Z M 119.75 238.234375 "/></g><g clip-rule="nonzero" clip-path="url(#8b4f0d0897)"><path style=" stroke:none;fill-rule:nonzero;fill:#ef4444;fill-opacity:1;" d="M 359.703125 30.015625 C 359.703125 55.273438 339.230469 75.746094 313.972656 75.746094 L 165.519531 75.746094 C 164.679688 72.289062 164.238281 68.675781 164.238281 64.953125 C 164.238281 39.695312 184.707031 19.222656 209.964844 19.222656 L 313.972656 19.222656 C 328.558594 19.222656 341.550781 12.394531 349.925781 1.761719 C 353.917969 6.824219 356.859375 12.753906 358.421875 19.222656 C 359.261719 22.679688 359.703125 26.292969 359.703125 30.015625 "/></g><g clip-rule="nonzero" clip-path="url(#eabf21c22b)"><path style=" stroke:none;fill-rule:nonzero;fill:#ef4444;fill-opacity:1;" d="M 286.84375 125.910156 C 286.84375 143.539062 276.871094 158.839844 262.25 166.464844 C 255.925781 169.769531 248.738281 171.636719 241.113281 171.636719 L 178.070312 171.636719 C 135.648438 171.636719 99.742188 199.546875 87.726562 238.011719 C 84.933594 229.085938 83.433594 219.59375 83.433594 209.75 C 83.433594 196.191406 86.285156 183.296875 91.421875 171.636719 C 106.089844 138.351562 139.363281 115.113281 178.070312 115.113281 L 241.113281 115.113281 C 255.699219 115.113281 268.691406 108.285156 277.0625 97.652344 C 281.054688 102.714844 283.992188 108.644531 285.558594 115.113281 C 286.402344 118.578125 286.84375 122.191406 286.84375 125.910156 "/></g></g></svg>